<svg xmlns="http://www.w3.org/2000/svg" version="1.1" xmlns:xlink="http://www.w3.org/1999/xlink" width="1000" height="1000"><g clip-path="url(#SvgjsClipPath1241)"><rect width="1000" height="1000" fill="#5941e0"></rect><g transform="matrix(3.409090909090909,0,0,3.409090909090909,211.9318181818182,200)"><svg xmlns="http://www.w3.org/2000/svg" version="1.1" xmlns:xlink="http://www.w3.org/1999/xlink" width="169" height="176"><svg width="169" height="176" viewBox="0 0 169 176" fill="none" xmlns="http://www.w3.org/2000/svg">
<path d="M132.28 88.0128C132.264 104.158 102.812 117.244 66.4817 117.244C30.1419 117.244 0.682734 104.151 0.682734 88C0.682734 71.849 30.1419 58.7559 66.4818 58.7559C102.812 58.7559 132.264 71.8419 132.28 87.9871L168.36 51.9071C160.107 33.6217 145.836 18.7174 127.926 9.67809C110.016 0.638835 89.5491 -1.98922 69.9364 2.23197C50.3238 6.45316 32.7504 17.2686 20.145 32.8756C7.53972 48.4826 0.664063 67.9383 0.664062 88C0.664063 108.062 7.53972 127.517 20.145 143.124C32.7504 158.731 50.3238 169.547 69.9364 173.768C89.5491 177.989 110.016 175.361 127.926 166.322C145.836 157.283 160.107 142.378 168.36 124.093L132.28 88.0128Z" fill="white"></path>
</svg></svg></g></g><defs><clipPath id="SvgjsClipPath1241"><rect width="1000" height="1000" x="0" y="0" rx="350" ry="350"></rect></clipPath></defs></svg>